<?xml version="1.0" encoding="UTF-8" standalone="no"?>
<!-- Created with Inkscape (http://www.inkscape.org/) -->

<svg
   xmlns:dc="http://purl.org/dc/elements/1.1/"
   xmlns:cc="http://creativecommons.org/ns#"
   xmlns:rdf="http://www.w3.org/1999/02/22-rdf-syntax-ns#"
   xmlns:svg="http://www.w3.org/2000/svg"
   xmlns="http://www.w3.org/2000/svg"
   version="1.2"
   width="354.99435"
   height="263.05042"
   id="svg2">
  <defs
     id="defs4" />
  <metadata
     id="metadata7">
    <rdf:RDF>
      <cc:Work
         rdf:about="">
        <dc:format>image/svg+xml</dc:format>
        <dc:type
           rdf:resource="http://purl.org/dc/dcmitype/StillImage" />
        <dc:title></dc:title>
      </cc:Work>
    </rdf:RDF>
  </metadata>
  <g
     transform="translate(-72.565628,-102.41211)"
     id="layer1">
    <rect
       width="353.75745"
       height="143.48204"
       ry="7.4457736"
       x="72.565628"
       y="102.41211"
       id="rect2985"
       style="fill:#00d200;fill-opacity:1;stroke:none" />
    <path
       d="m 131.25,126.09375 c -0.85,0 -1.65625,0.3375 -1.65625,1.1875 l 0,34.0625 c 0,0.85 0.75,1.28125 1.5,1.28125 l 16.0625,0 c 0.75,0 1.09375,-0.73125 1.09375,-1.53125 0,-0.75 -0.34375,-1.5 -1.09375,-1.5 l -14.25,0 0,-32.3125 c 0,-0.85 -0.85625,-1.1875 -1.65625,-1.1875 z m 51.15625,1.65625 c -0.75,0 -1.59375,0.4875 -1.59375,1.1875 l 0,26.34375 c 0,5.14999 2.75626,7.34375 7.90625,7.34375 l 1.375,0 c 0.9,0 1.5,-0.7 1.5,-1.5 0,-0.75 -0.6,-1.4375 -1.5,-1.4375 l -1.375,0 c -3.45,0 -4.65625,-1.15625 -4.65625,-4.40625 l 0,-13.59375 6.4375,0 c 0.65,0 1.15625,-0.64375 1.15625,-1.34375 0,-0.7 -0.50625,-1.34375 -1.15625,-1.34375 l -6.4375,0 0,-10.0625 c 0,-0.7 -0.85625,-1.1875 -1.65625,-1.1875 z m -28.71875,0.0937 c -1.25,0 -2.25,0.93125 -2.25,2.03125 0,1.1 1,2.125 2.25,2.125 1.2,0 2.15625,-1.025 2.15625,-2.125 0,-1.1 -0.95625,-2.03125 -2.15625,-2.03125 z m 14.9375,10.84375 c -5.69999,0 -7.90625,3.6125 -7.90625,6.8125 0,8.29999 12.34375,4.53751 12.34375,11.1875 0,1.9 -1.35625,3.5625 -5.15625,3.5625 -4.5,0 -5.49375,-2.375 -6.59375,-2.375 -0.65,0 -1.15625,0.85 -1.15625,1.5 0,1.5 3.175,3.625 7.875,3.625 5.09999,0 8.03125,-2.51875 8.03125,-6.46875 0,-9.09999 -12.40625,-5.48751 -12.40625,-11.1875 0,-1.65 1.3,-3.90625 5,-3.90625 2.95,0 4.5125,1.40625 5.3125,1.40625 0.8,0 1.34375,-1.16875 1.34375,-1.71875 0,-1.2 -3.3875,-2.4375 -6.6875,-2.4375 z M 153.6875,139 c -0.9,0 -1.59375,0.4875 -1.59375,1.1875 l 0,21.15625 c 0,0.65 0.69375,1.28125 1.59375,1.28125 0.9,0 1.65625,-0.63125 1.65625,-1.28125 l 0,-21.15625 c 0,-0.7 -0.75625,-1.1875 -1.65625,-1.1875 z m -37.96875,49.59375 c -0.85,0 -1.90625,0.55625 -1.90625,1.40625 0,0.1 0.0125,0.24375 0.0625,0.34375 L 124.3125,224.25 c 0.25,0.85 1.0875,1.1875 1.9375,1.1875 0.9,0 1.75,-0.3875 2,-1.1875 l 10.40625,-33.90625 c 0,-0.1 0.0625,-0.2125 0.0625,-0.3125 0,-0.8 -1.1,-1.4375 -2,-1.4375 -0.55,0 -1.05,0.24375 -1.25,0.84375 L 126.25,220.125 117,189.4375 c -0.15,-0.6 -0.68125,-0.84375 -1.28125,-0.84375 z m 28.6875,1.75 c -1.25,0 -2.25,0.93125 -2.25,2.03125 0,1.1 1,2.125 2.25,2.125 1.2,0 2.15625,-1.025 2.15625,-2.125 0,-1.1 -0.95625,-2.03125 -2.15625,-2.03125 z m 16.625,10.84375 c -5.24999,0 -9.53125,4.18751 -9.53125,9.1875 l 0,5.625 c 0,5.69999 4.45001,9.5 10.75,9.5 4.65,0 7.5,-2.1125 7.5,-3.3125 0,-0.6 -0.60625,-1.5625 -1.40625,-1.5625 -1.1,0 -2.05,2 -6,2 -4.4,0 -7.59375,-2.5 -7.59375,-6.5 l 0,-1.84375 11.28125,0 c 2.2,0 4.34375,-0.15 4.34375,-4 0,-5.29999 -4.39375,-9.09375 -9.34375,-9.09375 z m 13.84375,0.1875 c -0.9,0 -1.9375,0.66875 -1.9375,1.46875 0,0.2 0.0875,0.55 0.1875,0.75 l 7.8125,20.9375 c 0.25,0.8 0.69375,1 1.34375,1 0.7,0 1.26875,-0.3 1.46875,-1 l 5.125,-16 5.21875,16.25 c 0.25,0.5 0.64375,0.75 1.34375,0.75 0.55,0 1.1125,-0.18125 1.3125,-0.78125 l 7.78125,-21.15625 c 0.1,-0.15 0.21875,-0.5 0.21875,-0.75 0,-0.9 -1.11875,-1.46875 -1.96875,-1.46875 -0.5,0 -0.99375,0.3 -1.09375,0.75 l -6.5625,18 -4.9375,-16.4375 c -0.2,-0.65 -0.7125,-0.84375 -1.3125,-0.84375 -0.65,0 -1.08125,0.19375 -1.28125,0.84375 l -5.15625,16.25 -6.40625,-17.8125 c -0.15,-0.5 -0.65625,-0.75 -1.15625,-0.75 z m -30.46875,0.125 c -0.9,0 -1.59375,0.4875 -1.59375,1.1875 l 0,21.15625 c 0,0.65 0.69375,1.28125 1.59375,1.28125 0.9,0 1.65625,-0.63125 1.65625,-1.28125 l 0,-21.15625 c 0,-0.7 -0.75625,-1.1875 -1.65625,-1.1875 z M 161,203.875 c 3.7,0 6.25,3.1125 6.25,6.3125 0,1.4 -0.5,1.6875 -2.5,1.6875 l -10,0 0,-1.875 c 0,-3.35 2.8,-6.125 6.25,-6.125 z"
       id="path3901"
       style="font-size:122.39035034px;font-style:normal;font-weight:normal;line-height:125%;letter-spacing:0px;word-spacing:0.03059759px;fill:#000000;fill-opacity:1;stroke:none;font-family:dosis;-inkscape-font-specification:dosis" />
    <rect
       width="136.88516"
       height="102.25157"
       ry="8.7295275"
       x="264.22583"
       y="121.37812"
       id="rect3767"
       style="fill:#0a00d2;fill-opacity:1;stroke:none" />
    <g
       id="text3769"
       style="font-size:40px;font-style:normal;font-weight:normal;line-height:125%;letter-spacing:0px;word-spacing:0.01px;fill:#ffffff;fill-opacity:1;stroke:none;font-family:dosis;-inkscape-font-specification:dosis">
      <path
         d="m 338,132.09375 c -0.75999,0 -1.375,0.40875 -1.375,0.96875 l 0,13.4375 c -0.83999,-1.56 -2.61,-3.0625 -5.25,-3.0625 -3.91999,0 -7.1875,3.38 -7.1875,7.5 l 0,4.34375 c 0,3.95999 3.29376,7.59375 7.09375,7.59375 2.48,0 4.58876,-1.4225 5.46875,-3.0625 l 0,1.75 c 0,0.52 0.57001,1.03125 1.25,1.03125 0.72,0 1.25,-0.51125 1.25,-1.03125 l 0,-28.5 c 0,-0.56 -0.53,-0.96875 -1.25,-0.96875 z m -42.125,2.59375 c -0.6,0 -1.28125,0.40875 -1.28125,0.96875 l 0,21.0625 c 0,4.11999 2.22375,5.875 6.34375,5.875 l 1.09375,0 c 0.72,0 1.21875,-0.5475 1.21875,-1.1875 0,-0.6 -0.49875,-1.15625 -1.21875,-1.15625 l -1.09375,0 c -2.76,0 -3.71875,-0.93126 -3.71875,-3.53125 l 0,-10.875 5.15625,0 c 0.52,0 0.90625,-0.5025 0.90625,-1.0625 0,-0.56 -0.38625,-1.09375 -0.90625,-1.09375 l -5.15625,0 0,-8.03125 c 0,-0.56 -0.70375,-0.96875 -1.34375,-0.96875 z m 17.09375,8.75 c -4.15999,0 -7.5625,3.5 -7.5625,7.5 l 0,4.34375 c 0,3.99999 3.52251,7.59375 7.5625,7.59375 4.08,0 7.65625,-3.63376 7.65625,-7.59375 l 0,-4.34375 c 0,-4.12 -3.57625,-7.5 -7.65625,-7.5 z m 38.125,0 c -4.15999,0 -7.5625,3.5 -7.5625,7.5 l 0,4.34375 c 0,3.99999 3.52251,7.59375 7.5625,7.59375 4.08,0 7.65625,-3.63376 7.65625,-7.59375 l 0,-4.34375 c 0,-4.12 -3.57625,-7.5 -7.65625,-7.5 z m 17.5,0 c -4.55999,0 -6.3125,2.8775 -6.3125,5.4375 0,6.63999 9.875,3.64875 9.875,8.96875 0,1.52 -1.085,2.84375 -4.125,2.84375 -3.59999,0 -4.40125,-1.875 -5.28125,-1.875 -0.52,0 -0.90625,0.6675 -0.90625,1.1875 0,1.2 2.52126,2.875 6.28125,2.875 4.08,0 6.4375,-1.99626 6.4375,-5.15625 0,-7.28 -9.90625,-4.37751 -9.90625,-8.9375 0,-1.32 1.04001,-3.125 4,-3.125 2.36,0 3.57876,1.125 4.21875,1.125 0.64,0 1.09375,-0.935 1.09375,-1.375 0,-0.96 -2.735,-1.96875 -5.375,-1.96875 z m -55.625,2.40625 c 2.8,0 5.03125,2.53375 5.03125,5.09375 l 0,4.34375 C 318,157.96124 315.76875,160.5 312.96875,160.5 310.20876,160.5 308,157.96124 308,155.28125 l 0,-4.34375 c 0,-2.56 2.16876,-5.09375 4.96875,-5.09375 z m 18.84375,0 c 2.4,0 4.8125,1.89375 4.8125,5.09375 l 0,5.59375 c 0,1.2 -2.075,3.96875 -4.875,3.96875 -2.67999,0 -4.9375,-2.57876 -4.9375,-5.21875 l 0,-4.34375 c 0,-2.56 2.24001,-5.09375 5,-5.09375 z m 19.28125,0 c 2.8,0 5.03125,2.53375 5.03125,5.09375 l 0,4.34375 c 0,2.67999 -2.23125,5.21875 -5.03125,5.21875 -2.75999,0 -4.96875,-2.53876 -4.96875,-5.21875 l 0,-4.34375 c 0,-2.56 2.16876,-5.09375 4.96875,-5.09375 z m -45.90625,37.4375 c -3.71999,0 -8.46875,1.44125 -8.46875,7.28125 0,9.75999 13.28125,5.43251 13.28125,14.3125 0,3.63999 -2.24875,5.53125 -5.96875,5.53125 -4.99999,0 -5.80375,-3.3125 -6.84375,-3.3125 -0.6,0 -1.1875,0.82875 -1.1875,1.46875 0,1.44 3.06751,4.3125 8.1875,4.3125 4.92,0 8.4375,-2.53876 8.4375,-8.21875 0,-11.07999 -13.28125,-6.87251 -13.28125,-14.3125 0,-3.56 2.8525,-4.65625 5.8125,-4.65625 3.52,0 4.83375,1.53125 5.59375,1.53125 0.72,0 1.15625,-0.98 1.15625,-1.5 0,-1.44 -3.71875,-2.4375 -6.71875,-2.4375 z m 12.84375,1.40625 c -0.6,0 -1.28125,0.40875 -1.28125,0.96875 l 0,21.0625 c 0,4.11999 2.1925,5.875 6.3125,5.875 l 1.125,0 c 0.72,0 1.21875,-0.5475 1.21875,-1.1875 0,-0.6 -0.49875,-1.15625 -1.21875,-1.15625 l -1.125,0 c -2.76,0 -3.71875,-0.93126 -3.71875,-3.53125 l 0,-10.875 5.15625,0 c 0.52,0 0.9375,-0.5025 0.9375,-1.0625 0,-0.56 -0.4175,-1.09375 -0.9375,-1.09375 l -5.15625,0 0,-8.03125 c 0,-0.56 -0.6725,-0.96875 -1.3125,-0.96875 z m 29.375,0 c -0.6,0 -1.28125,0.40875 -1.28125,0.96875 l 0,21.0625 c 0,4.11999 2.1925,5.875 6.3125,5.875 l 1.125,0 c 0.72,0 1.21875,-0.5475 1.21875,-1.1875 0,-0.6 -0.49875,-1.15625 -1.21875,-1.15625 l -1.125,0 c -2.76,0 -3.71875,-0.93126 -3.71875,-3.53125 l 0,-10.875 5.15625,0 c 0.52,0 0.9375,-0.5025 0.9375,-1.0625 0,-0.56 -0.4175,-1.09375 -0.9375,-1.09375 l -5.15625,0 0,-8.03125 c 0,-0.56 -0.6725,-0.96875 -1.3125,-0.96875 z m -13.3125,8.75 c -2.56,0 -5.375,1.0225 -5.375,2.0625 0,0.6 0.35125,1.375 1.03125,1.375 0.64,0 1.60125,-1.15625 4.28125,-1.15625 3.43999,0 4.71875,2.8775 4.71875,5.4375 l 0,0.96875 -2.03125,0 c -5.56,0 -9.34375,1.10875 -9.34375,5.46875 0,3.59999 2.42875,5.28125 5.46875,5.28125 2.67999,0 4.63125,-1.4625 6.03125,-3.0625 l 0,1.75 c 0,0.6 0.5075,1.03125 1.1875,1.03125 0.76,0 1.28125,-0.43125 1.28125,-1.03125 l 0,-10.40625 c 0,-4 -1.89001,-7.71875 -7.25,-7.71875 z m 30.53125,0 c -4.19999,0 -7.65625,3.375 -7.65625,7.375 l 0,4.46875 c 0,4.55999 3.55376,7.59375 8.59375,7.59375 3.72,0 6,-1.665 6,-2.625 0,-0.48 -0.45375,-1.25 -1.09375,-1.25 -0.88,0 -1.6525,1.59375 -4.8125,1.59375 -3.51999,0 -6.09375,-1.98751 -6.09375,-5.1875 l 0,-1.46875 9.0625,0 c 1.76,0 3.46875,-0.13876 3.46875,-3.21875 0,-4.24 -3.50875,-7.28125 -7.46875,-7.28125 z m -0.0625,2.15625 c 2.96,0 5,2.5025 5,5.0625 0,1.12 -0.4,1.34375 -2,1.34375 l -8,0 0,-1.5 c 0,-2.68 2.24,-4.90625 5,-4.90625 z m -27.5,8.34375 1.6875,0 0,2.5625 c 0,1.8 -2.72126,4.1875 -5.28125,4.1875 -1.96,0 -3.46875,-0.99251 -3.46875,-3.3125 0,-3.08 3.3825,-3.4375 7.0625,-3.4375 z"
         id="path3971"
         style="text-align:center;text-anchor:middle;fill:#ffffff;fill-opacity:1" />
    </g>
    <rect
       width="112.97149"
       height="110.49766"
       ry="5.7341018"
       x="72.565636"
       y="254.96486"
       id="rect2985-4"
       style="fill:#00d200;fill-opacity:1;stroke:none" />
    <path
       d="m 141.71875,269.8125 c -0.76,0 -1.34375,0.3775 -1.34375,0.9375 l 0,13.4375 c -0.84,-1.56 -2.64125,-3.03125 -5.28125,-3.03125 -3.92,0 -7.15625,3.34875 -7.15625,7.46875 l 0,4.375 c 0,3.96 3.2625,7.59375 7.0625,7.59375 2.48,0 4.62,-1.4225 5.5,-3.0625 l 0,1.75 c 0,0.52 0.53875,1.03125 1.21875,1.03125 0.72,0 1.25,-0.51125 1.25,-1.03125 l 0,-28.53125 c 0,-0.56 -0.53,-0.9375 -1.25,-0.9375 z m -48.375,1.28125 c -0.679999,0 -1,0.61875 -1,1.21875 0,0.64 0.360001,1.25 1,1.25 l 6.71875,0 0,25.71875 c 0,0.68 0.66375,1.03125 1.34375,1.03125 0.64,0 1.3125,-0.35125 1.3125,-1.03125 l 0,-25.71875 6.6875,0 c 0.68,0 1,-0.64125 1,-1.28125 0,-0.6 -0.32,-1.1875 -1,-1.1875 l -16.0625,0 z m 23.34375,10.0625 c -4.16,0 -7.5625,3.46875 -7.5625,7.46875 l 0,4.375 c 0,4 3.5225,7.59375 7.5625,7.59375 4.08,0 7.65625,-3.63375 7.65625,-7.59375 l 0,-4.375 c 0,-4.12 -3.57625,-7.46875 -7.65625,-7.46875 z m 38.125,0 c -4.16,0 -7.5625,3.46875 -7.5625,7.46875 l 0,4.375 c 0,4 3.5225,7.59375 7.5625,7.59375 4.08,0 7.65625,-3.63375 7.65625,-7.59375 l 0,-4.375 c 0,-4.12 -3.57625,-7.46875 -7.65625,-7.46875 z m -38.125,2.40625 c 2.8,0 5.0625,2.5025 5.0625,5.0625 l 0,4.375 c 0,2.68 -2.2625,5.1875 -5.0625,5.1875 -2.76,0 -4.9375,-2.5075 -4.9375,-5.1875 l 0,-4.375 c 0,-2.56 2.1375,-5.0625 4.9375,-5.0625 z m 18.84375,0 c 2.4,0 4.84375,1.8625 4.84375,5.0625 l 0,5.625 c 0,1.2 -2.075,3.9375 -4.875,3.9375 -2.68,0 -4.96875,-2.5475 -4.96875,-5.1875 l 0,-4.375 c 0,-2.56 2.24,-5.0625 5,-5.0625 z m 19.28125,0 c 2.8,0 5.0625,2.5025 5.0625,5.0625 l 0,4.375 c 0,2.68 -2.2625,5.1875 -5.0625,5.1875 -2.76,0 -4.9375,-2.5075 -4.9375,-5.1875 l 0,-4.375 c 0,-2.56 2.1375,-5.0625 4.9375,-5.0625 z m -61.59375,37.53125 c -0.679999,0 -1.53125,0.41375 -1.53125,1.09375 0,0.08 -0.0088,0.20125 0.03125,0.28125 l 8.375,27.125 c 0.2,0.68 0.8825,0.96875 1.5625,0.96875 0.72,0 1.39375,-0.32875 1.59375,-0.96875 l 8.3125,-27.125 c 0,-0.08 0.0625,-0.13875 0.0625,-0.21875 0,-0.64 -0.905,-1.15625 -1.625,-1.15625 -0.44,0 -0.84,0.17625 -1,0.65625 L 101.65625,346.3125 94.25,321.75 c -0.12,-0.48 -0.55125,-0.65625 -1.03125,-0.65625 z m 22.96875,1.375 c -1,0 -1.8125,0.77625 -1.8125,1.65625 0,0.88 0.8125,1.6875 1.8125,1.6875 0.96,0 1.71875,-0.8075 1.71875,-1.6875 0,-0.88 -0.75875,-1.65625 -1.71875,-1.65625 z m 13.28125,8.6875 c -4.2,0 -7.625,3.375 -7.625,7.375 l 0,4.46875 c 0,4.56 3.55376,7.59375 8.59375,7.59375 3.72,0 6,-1.665 6,-2.625 0,-0.48 -0.485,-1.25 -1.125,-1.25 -0.88,0 -1.6525,1.59375 -4.8125,1.59375 -3.52,0 -6.0625,-1.9875 -6.0625,-5.1875 l 0,-1.5 9.03125,0 c 1.76,0 3.46875,-0.1075 3.46875,-3.1875 0,-4.24 -3.50875,-7.28125 -7.46875,-7.28125 z m 11.09375,0.15625 c -0.72,0 -1.5625,0.51625 -1.5625,1.15625 0,0.16 0.0762,0.465 0.15625,0.625 l 6.25,16.75 c 0.2,0.64 0.5425,0.78125 1.0625,0.78125 0.56,0 0.99625,-0.22125 1.15625,-0.78125 l 4.125,-12.8125 4.15625,13 c 0.2,0.4 0.53375,0.59375 1.09375,0.59375 0.44,0 0.87125,-0.145 1.03125,-0.625 l 6.25,-16.90625 c 0.08,-0.12 0.15625,-0.425 0.15625,-0.625 0,-0.72 -0.8825,-1.15625 -1.5625,-1.15625 -0.4,0 -0.795,0.23375 -0.875,0.59375 l -5.25,14.40625 -3.96875,-13.15625 c -0.16,-0.52 -0.55125,-0.6875 -1.03125,-0.6875 -0.52,0 -0.87125,0.1675 -1.03125,0.6875 l -4.125,13 -5.125,-14.25 c -0.12,-0.4 -0.50625,-0.59375 -0.90625,-0.59375 z m -24.375,0.0937 c -0.72,0 -1.28125,0.3775 -1.28125,0.9375 l 0,16.9375 c 0,0.52 0.56125,1.03125 1.28125,1.03125 0.72,0 1.3125,-0.51125 1.3125,-1.03125 l 0,-16.9375 c 0,-0.56 -0.5925,-0.9375 -1.3125,-0.9375 z m 13.25,1.90625 c 2.96,0 5,2.47125 5,5.03125 0,1.12 -0.4,1.375 -2,1.375 l -8,0 0,-1.53125 c 0,-2.68 2.24,-4.875 5,-4.875 z"
       id="path3903"
       style="font-size:40px;font-style:normal;font-weight:normal;line-height:125%;letter-spacing:0px;word-spacing:0.01px;fill:#000000;fill-opacity:1;stroke:none;font-family:dosis;-inkscape-font-specification:dosis" />
    <flowRoot
       id="flowRoot3810"
       xml:space="preserve"
       style="font-size:40px;font-style:normal;font-weight:normal;line-height:125%;letter-spacing:0px;word-spacing:0.01px;fill:#000000;fill-opacity:1;stroke:none;font-family:dosis;-inkscape-font-specification:dosis"><flowRegion
         id="flowRegion3812"><rect
           width="412.30472"
           height="80.811722"
           x="-22.264454"
           y="217.85744"
           id="rect3814" /></flowRegion><flowPara
         id="flowPara3816"></flowPara></flowRoot>    <rect
       width="112.97149"
       height="110.49766"
       ry="5.7341018"
       x="193.37091"
       y="254.96486"
       id="rect2985-4-4"
       style="fill:#00d200;fill-opacity:1;stroke:none" />
    <g
       id="text3804-2"
       style="font-size:40px;font-style:normal;font-weight:normal;line-height:125%;letter-spacing:0px;word-spacing:0.01px;fill:#000000;fill-opacity:1;stroke:none;font-family:dosis;-inkscape-font-specification:dosis">
      <path
         d="m 262.53125,269.8125 c -0.76,0 -1.34375,0.3775 -1.34375,0.9375 l 0,13.4375 c -0.84,-1.56 -2.64126,-3.03125 -5.28125,-3.03125 -3.92,0 -7.1875,3.34875 -7.1875,7.46875 l 0,4.375 c 0,3.96 3.29375,7.59375 7.09375,7.59375 2.47999,0 4.58875,-1.4225 5.46875,-3.0625 l 0,1.75 c 0,0.52 0.57,1.03125 1.25,1.03125 0.71999,0 1.25,-0.51125 1.25,-1.03125 l 0,-28.53125 c 0,-0.56 -0.53001,-0.9375 -1.25,-0.9375 z m -48.375,1.28125 c -0.68,0 -1,0.61875 -1,1.21875 0,0.64 0.36,1.25 1,1.25 l 6.71875,0 0,25.71875 c 0,0.68 0.6325,1.03125 1.3125,1.03125 0.63999,0 1.34375,-0.35125 1.34375,-1.03125 l 0,-25.71875 6.65625,0 c 0.67999,0 1,-0.64125 1,-1.28125 0,-0.6 -0.32001,-1.1875 -1,-1.1875 l -16.03125,0 z M 237.5,281.15625 c -4.16,0 -7.5625,3.46875 -7.5625,7.46875 l 0,4.375 c 0,4 3.5225,7.59375 7.5625,7.59375 4.07999,0 7.65625,-3.63375 7.65625,-7.59375 l 0,-4.375 c 0,-4.12 -3.57626,-7.46875 -7.65625,-7.46875 z m 38.125,0 c -4.16,0 -7.5625,3.46875 -7.5625,7.46875 l 0,4.375 c 0,4 3.5225,7.59375 7.5625,7.59375 4.07999,0 7.65625,-3.63375 7.65625,-7.59375 l 0,-4.375 c 0,-4.12 -3.57626,-7.46875 -7.65625,-7.46875 z M 237.5,283.5625 c 2.79999,0 5.03125,2.5025 5.03125,5.0625 l 0,4.375 c 0,2.68 -2.23126,5.1875 -5.03125,5.1875 -2.76,0 -4.96875,-2.5075 -4.96875,-5.1875 l 0,-4.375 c 0,-2.56 2.16875,-5.0625 4.96875,-5.0625 z m 18.84375,0 c 2.39999,0 4.84375,1.8625 4.84375,5.0625 l 0,5.625 c 0,1.2 -2.10626,3.9375 -4.90625,3.9375 -2.68,0 -4.9375,-2.5475 -4.9375,-5.1875 l 0,-4.375 c 0,-2.56 2.24,-5.0625 5,-5.0625 z m 19.28125,0 c 2.79999,0 5.03125,2.5025 5.03125,5.0625 l 0,4.375 c 0,2.68 -2.23126,5.1875 -5.03125,5.1875 -2.76,0 -4.96875,-2.5075 -4.96875,-5.1875 l 0,-4.375 c 0,-2.56 2.16875,-5.0625 4.96875,-5.0625 z m -61.59375,37.53125 c -0.68,0 -1.53125,0.41375 -1.53125,1.09375 0,0.08 -0.009,0.20125 0.0312,0.28125 l 8.375,27.125 c 0.2,0.68 0.8825,0.96875 1.5625,0.96875 0.72,0 1.39375,-0.32875 1.59375,-0.96875 l 8.3125,-27.125 c 0,-0.08 0.0312,-0.13875 0.0312,-0.21875 0,-0.64 -0.87375,-1.15625 -1.59375,-1.15625 -0.44,0 -0.84,0.17625 -1,0.65625 l -7.34375,24.5625 -7.40625,-24.5625 c -0.12,-0.48 -0.55125,-0.65625 -1.03125,-0.65625 z m 22.9375,1.375 c -1,0 -1.78125,0.77625 -1.78125,1.65625 0,0.88 0.78125,1.6875 1.78125,1.6875 0.95999,0 1.71875,-0.8075 1.71875,-1.6875 0,-0.88 -0.75876,-1.65625 -1.71875,-1.65625 z m 13.3125,8.6875 c -4.2,0 -7.65625,3.375 -7.65625,7.375 l 0,4.46875 c 0,4.55999 3.585,7.59375 8.625,7.59375 3.71999,0 6,-1.665 6,-2.625 0,-0.48 -0.48501,-1.25 -1.125,-1.25 -0.88,0 -1.65251,1.59375 -4.8125,1.59375 -3.52,0 -6.0625,-1.9875 -6.0625,-5.1875 l 0,-1.5 9.03125,0 c 1.75999,0 3.46875,-0.1075 3.46875,-3.1875 0,-4.24 -3.50876,-7.28125 -7.46875,-7.28125 z m 11.0625,0.15625 c -0.72,0 -1.53125,0.51625 -1.53125,1.15625 0,0.16 0.0763,0.465 0.15625,0.625 l 6.21875,16.75 c 0.2,0.64 0.57375,0.78125 1.09375,0.78125 0.56,0 0.99625,-0.22125 1.15625,-0.78125 l 4.125,-12.8125 4.15625,13 c 0.2,0.4 0.53375,0.59375 1.09375,0.59375 0.44,0 0.87125,-0.145 1.03125,-0.625 l 6.21875,-16.90625 c 0.08,-0.12 0.1875,-0.425 0.1875,-0.625 0,-0.72 -0.8825,-1.15625 -1.5625,-1.15625 -0.4,0 -0.795,0.23375 -0.875,0.59375 l -5.25,14.40625 -3.96875,-13.15625 c -0.16,-0.52 -0.55125,-0.6875 -1.03125,-0.6875 -0.52,0 -0.87125,0.1675 -1.03125,0.6875 l -4.125,13 -5.125,-14.25 c -0.12,-0.4 -0.5375,-0.59375 -0.9375,-0.59375 z m -24.375,0.0937 c -0.72,0 -1.28125,0.3775 -1.28125,0.9375 l 0,16.9375 c 0,0.52 0.56125,1.03125 1.28125,1.03125 0.71999,0 1.34375,-0.51125 1.34375,-1.03125 l 0,-16.9375 c 0,-0.56 -0.62376,-0.9375 -1.34375,-0.9375 z M 250.25,333.3125 c 2.95999,0 5,2.47125 5,5.03125 0,1.12 -0.40001,1.375 -2,1.375 l -8,0 0,-1.53125 c 0,-2.68 2.24,-4.875 5,-4.875 z"
         id="path3923"
         style="text-align:center;text-anchor:middle" />
    </g>
    <rect
       width="112.97149"
       height="110.49766"
       ry="5.7341018"
       x="314.5885"
       y="254.14026"
       id="rect2985-4-45"
       style="fill:#00d200;fill-opacity:1;stroke:none" />
    <g
       id="text3804-3"
       style="font-size:40px;font-style:normal;font-weight:normal;line-height:125%;letter-spacing:0px;word-spacing:0.01px;fill:#000000;fill-opacity:1;stroke:none;font-family:dosis;-inkscape-font-specification:dosis">
      <path
         d="m 383.75,268.96875 c -0.76,0 -1.375,0.40875 -1.375,0.96875 l 0,13.4375 c -0.84,-1.55999 -2.61001,-3.03125 -5.25,-3.03125 -3.92,0 -7.1875,3.34876 -7.1875,7.46875 l 0,4.375 c 0,3.96 3.29375,7.59375 7.09375,7.59375 2.47999,0 4.58875,-1.45375 5.46875,-3.09375 l 0,1.78125 c 0,0.52 0.57,1.03125 1.25,1.03125 0.72,0 1.25,-0.51125 1.25,-1.03125 l 0,-28.53125 c 0,-0.56 -0.53,-0.96875 -1.25,-0.96875 z M 335.375,270.25 c -0.68,0 -1,0.65 -1,1.25 0,0.64 0.36,1.21875 1,1.21875 l 6.71875,0 0,25.75 c 0,0.68 0.6325,1.03125 1.3125,1.03125 0.64,0 1.34375,-0.35125 1.34375,-1.03125 l 0,-25.75 6.65625,0 c 0.68,0 1,-0.61 1,-1.25 0,-0.6 -0.32,-1.21875 -1,-1.21875 l -16.03125,0 z m 23.34375,10.09375 c -4.16,0 -7.5625,3.46876 -7.5625,7.46875 l 0,4.375 c 0,4 3.5225,7.59375 7.5625,7.59375 4.07999,0 7.65625,-3.63375 7.65625,-7.59375 l 0,-4.375 c 0,-4.11999 -3.57626,-7.46875 -7.65625,-7.46875 z m 38.125,0 c -4.16,0 -7.5625,3.46876 -7.5625,7.46875 l 0,4.375 c 0,4 3.5225,7.59375 7.5625,7.59375 4.07999,0 7.65625,-3.63375 7.65625,-7.59375 l 0,-4.375 c 0,-4.11999 -3.57626,-7.46875 -7.65625,-7.46875 z m -38.125,2.375 c 2.79999,0 5.03125,2.53376 5.03125,5.09375 l 0,4.375 c 0,2.68 -2.23126,5.1875 -5.03125,5.1875 -2.76,0 -4.96875,-2.5075 -4.96875,-5.1875 l 0,-4.375 c 0,-2.55999 2.16875,-5.09375 4.96875,-5.09375 z m 18.84375,0 c 2.39999,0 4.8125,1.89376 4.8125,5.09375 l 0,5.59375 c 0,1.2 -2.07501,3.96875 -4.875,3.96875 -2.68,0 -4.9375,-2.5475 -4.9375,-5.1875 l 0,-4.375 c 0,-2.55999 2.24,-5.09375 5,-5.09375 z m 19.28125,0 c 2.79999,0 5.03125,2.53376 5.03125,5.09375 l 0,4.375 c 0,2.68 -2.23126,5.1875 -5.03125,5.1875 -2.76,0 -4.96875,-2.5075 -4.96875,-5.1875 l 0,-4.375 c 0,-2.55999 2.16875,-5.09375 4.96875,-5.09375 z M 335.25,320.25 c -0.68,0 -1.53125,0.445 -1.53125,1.125 0,0.08 -0.009,0.20125 0.0312,0.28125 l 8.375,27.125 c 0.2,0.68 0.8825,0.9375 1.5625,0.9375 0.72,0 1.39375,-0.2975 1.59375,-0.9375 l 8.3125,-27.125 c 0,-0.08 0.0312,-0.17 0.0312,-0.25 0,-0.64 -0.87375,-1.15625 -1.59375,-1.15625 -0.44,0 -0.84,0.2075 -1,0.6875 L 343.6875,345.5 336.28125,320.9375 c -0.12,-0.48 -0.55125,-0.6875 -1.03125,-0.6875 z m 22.9375,1.40625 c -1,0 -1.78125,0.745 -1.78125,1.625 0,0.88 0.78125,1.6875 1.78125,1.6875 0.96,0 1.71875,-0.8075 1.71875,-1.6875 0,-0.88 -0.75875,-1.625 -1.71875,-1.625 z m 13.3125,8.6875 c -4.2,0 -7.65625,3.34376 -7.65625,7.34375 l 0,4.5 c 0,4.56 3.585,7.59375 8.625,7.59375 3.71999,0 6,-1.69625 6,-2.65625 0,-0.48 -0.485,-1.21875 -1.125,-1.21875 -0.88,0 -1.65251,1.59375 -4.8125,1.59375 -3.52,0 -6.0625,-2.01875 -6.0625,-5.21875 l 0,-1.46875 9.03125,0 c 1.75999,0 3.46875,-0.1075 3.46875,-3.1875 0,-4.23999 -3.50876,-7.28125 -7.46875,-7.28125 z M 382.5625,330.5 c -0.72,0 -1.5625,0.51625 -1.5625,1.15625 0,0.16 0.1075,0.43375 0.1875,0.59375 l 6.21875,16.75 c 0.2,0.64 0.57375,0.8125 1.09375,0.8125 0.56,0 0.99625,-0.2525 1.15625,-0.8125 l 4.125,-12.78125 4.15625,13 c 0.2,0.4 0.5025,0.59375 1.0625,0.59375 0.44,0 0.9025,-0.145 1.0625,-0.625 l 6.21875,-16.9375 c 0.08,-0.12 0.1875,-0.39375 0.1875,-0.59375 0,-0.72 -0.8825,-1.15625 -1.5625,-1.15625 -0.4,0 -0.82625,0.23375 -0.90625,0.59375 L 398.78125,345.5 394.8125,332.34375 c -0.16,-0.52 -0.55125,-0.6875 -1.03125,-0.6875 -0.52,0 -0.87125,0.1675 -1.03125,0.6875 l -4.125,13 -5.125,-14.25 c -0.12,-0.4 -0.5375,-0.59375 -0.9375,-0.59375 z m -24.375,0.0625 c -0.72,0 -1.28125,0.40875 -1.28125,0.96875 l 0,16.9375 c 0,0.52 0.56125,1.03125 1.28125,1.03125 0.72,0 1.34375,-0.51125 1.34375,-1.03125 l 0,-16.9375 c 0,-0.56 -0.62375,-0.96875 -1.34375,-0.96875 z m 13.28125,1.9375 c 2.95999,0 5,2.47126 5,5.03125 0,1.12 -0.40001,1.375 -2,1.375 l -8,0 0,-1.53125 c 0,-2.67999 2.24,-4.875 5,-4.875 z"
         id="path3943"
         style="text-align:center;text-anchor:middle" />
    </g>
  </g>
</svg>
